<?xml version="1.0" standalone="no"?>
<!DOCTYPE svg PUBLIC "-//W3C//DTD SVG 20010904//EN"
 "http://www.w3.org/TR/2001/REC-SVG-20010904/DTD/svg10.dtd">
<svg version="1.0" xmlns="http://www.w3.org/2000/svg"
 width="700.000000pt" height="700.000000pt" viewBox="0 0 700.000000 700.000000"
 preserveAspectRatio="xMidYMid meet">
<metadata>
Created by potrace 1.11, written by Peter Selinger 2001-2013
</metadata>
<g transform="translate(0.000000,700.000000) scale(0.100000,-0.100000)"
fill="#000000" stroke="none">
<path d="M4343 6982 c-17 -12 -23 -29 -25 -60 -1 -39 -3 -42 -27 -40 -62 4
-97 -30 -86 -82 8 -38 28 -52 73 -54 38 -1 38 -2 41 -53 1 -30 35 -63 65 -63
38 0 65 30 69 74 2 38 4 39 41 43 22 1 47 10 58 19 38 36 9 112 -44 115 -13 1
-29 2 -37 3 -9 1 -15 16 -17 41 -6 66 -62 95 -111 57z"/>
<path d="M2427 6814 c-4 -4 -7 -15 -7 -24 0 -35 -58 -97 -116 -126 l-57 -28
40 -13 c52 -18 108 -74 129 -129 l17 -44 23 49 c30 66 105 131 151 131 24 0 4
18 -28 25 -39 9 -105 74 -127 126 -10 22 -21 37 -25 33z"/>
<path d="M3793 6390 c-72 -29 -43 -140 32 -126 37 8 55 30 55 72 0 46 -42 72
-87 54z"/>
<path d="M797 6377 c-53 -17 -106 -63 -128 -111 -16 -36 -19 -67 -19 -242 l0
-201 -117 -2 c-65 -1 -134 -7 -155 -13 -54 -16 -103 -61 -132 -121 l-26 -52 0
-557 c-1 -597 0 -603 51 -666 13 -16 38 -38 55 -50 l32 -21 0 -2075 0 -2076
27 -56 c30 -61 84 -108 146 -124 26 -7 826 -9 2451 -7 2592 4 2413 1 2613 51
357 89 722 352 921 663 200 312 287 673 251 1033 -6 59 -9 77 -22 145 -33 182
-116 386 -227 554 l-48 74 0 914 0 913 23 9 c30 12 63 48 86 97 19 37 20 65
20 599 1 349 -3 574 -9 596 -17 62 -66 118 -126 146 -48 22 -67 25 -174 24
-66 0 -121 3 -121 7 -1 4 -3 93 -4 197 -3 203 -10 242 -58 293 -77 83 -217 87
-296 10 -62 -61 -65 -73 -68 -293 -1 -110 -2 -203 -3 -207 0 -4 -33 -6 -72 -5
l-73 2 -1 197 c-1 211 -6 240 -53 291 -79 87 -217 94 -298 15 -63 -61 -66 -73
-69 -288 -1 -107 -3 -201 -3 -207 -1 -9 -22 -12 -73 -10 l-73 2 0 200 c-1 172
-3 205 -19 237 -69 142 -254 164 -355 41 -41 -50 -47 -86 -46 -299 l0 -182
-1199 2 -1200 1 -1 200 c0 190 -1 202 -24 249 -64 130 -242 151 -340 40 -24
-27 -43 -62 -48 -83 -3 -20 -7 -120 -7 -222 l-1 -187 -72 0 c-40 0 -73 3 -74
6 0 4 -1 97 -2 208 l-2 201 -30 48 c-90 144 -305 127 -371 -30 -13 -33 -17
-77 -17 -237 l-1 -196 -73 0 -73 0 -1 187 c0 102 -2 196 -5 209 -6 33 -39 94
-60 113 -54 48 -142 67 -207 46z"/>
</g>
</svg>
